<svg width="19" height="19" viewBox="0 0 19 19" fill="none" xmlns="http://www.w3.org/2000/svg">
<path d="M0.889805 4.79892C1.03989 4.63766 1.22989 4.51889 1.44061 4.45463C1.65132 4.39036 1.87527 4.38287 2.0898 4.43293C2.34173 4.49542 2.57001 4.62989 2.7468 4.81993L9.4998 11.5739C11.7585 9.31726 14.0161 7.05993 16.2728 4.80193C16.5038 4.5587 16.8206 4.41519 17.1558 4.40193C17.3518 4.39559 17.5466 4.43536 17.7245 4.51803C17.9023 4.60071 18.0583 4.72398 18.1798 4.87793C18.3343 5.07877 18.4283 5.31953 18.4508 5.57193V5.67793C18.4422 5.85512 18.3994 6.02896 18.3248 6.18992C18.2229 6.38238 18.0874 6.55509 17.9248 6.69993C15.4248 9.19859 12.9248 11.6986 10.4248 14.1999C10.3066 14.3261 10.1637 14.4268 10.005 14.4955C9.84635 14.5643 9.67525 14.5998 9.5023 14.5998C9.32936 14.5998 9.15826 14.5643 8.99958 14.4955C8.84091 14.4268 8.69803 14.3261 8.5798 14.1999C6.03847 11.6599 3.49747 9.11926 0.956805 6.57792C0.710036 6.34172 0.564195 6.01922 0.549805 5.67793V5.60193C0.567308 5.3031 0.687401 5.01946 0.889805 4.79892Z" fill="#1B2024"/>
</svg>
