<svg width="19" height="19" viewBox="0 0 19 19" fill="none" xmlns="http://www.w3.org/2000/svg">
<path opacity="0.51" d="M0.523586 0H13.6096L13.6546 0.03C12.6116 0.044 11.5676 0.03 10.5246 0.036H0.935586C0.781586 0.036 0.628586 0.036 0.475586 0.031L0.523586 0Z" fill="#24D9C1"/>
<path opacity="0.51" d="M0 0.557028L0.028 0.491028C0.028 0.556028 0.036 0.620028 0.036 0.685028C0.036 4.74636 0.036 8.8077 0.036 12.869C0.036 13.869 0.044 14.86 0.031 15.855L0 15.905V0.557028Z" fill="#24D9C1"/>
<path d="M0.0283203 0.489992C0.0531622 0.379392 0.108184 0.277847 0.187272 0.196641C0.26636 0.115434 0.366416 0.0577477 0.47632 0.0299917C0.62932 0.0369917 0.78232 0.0359917 0.93632 0.0349917H10.5253C11.5683 0.0349917 12.6123 0.0429917 13.6553 0.0289917C13.7893 0.0562951 13.9097 0.129226 13.996 0.235354C14.0822 0.341481 14.129 0.474237 14.1283 0.610992C14.1283 3.48499 14.1283 6.35899 14.1283 9.23299C15.3783 9.23299 16.6283 9.23299 17.8773 9.23299C18.0205 9.23797 18.1573 9.29404 18.2627 9.39107C18.3682 9.4881 18.4354 9.61968 18.4523 9.76199V15.816C18.4211 16.3626 18.2344 16.8889 17.9143 17.333C17.5516 17.8315 17.0288 18.1904 16.4333 18.35C16.2436 18.3952 16.0512 18.4286 15.8573 18.45H2.64032C2.07516 18.4169 1.53271 18.216 1.08232 17.873C0.77083 17.6334 0.515401 17.3287 0.333871 16.9801C0.152342 16.6316 0.0490877 16.2476 0.0313203 15.855C0.0443203 14.855 0.0313203 13.864 0.0363203 12.869C0.0363203 8.80766 0.0363203 4.74633 0.0363203 0.684992C0.0363203 0.619992 0.0313203 0.554992 0.0283203 0.490992V0.489992ZM3.36832 4.05899C3.24334 4.07678 3.12863 4.13803 3.04432 4.23199C2.94404 4.35326 2.89406 4.50835 2.90467 4.66535C2.91527 4.82235 2.98565 4.96931 3.10132 5.07599C3.22365 5.17008 3.37643 5.21567 3.53032 5.20399H10.6663C10.8159 5.20954 10.9618 5.15684 11.0733 5.05699C11.1294 4.99922 11.1736 4.93096 11.2033 4.85612C11.233 4.78127 11.2476 4.70131 11.2464 4.6208C11.2452 4.54029 11.2282 4.4608 11.1962 4.38688C11.1643 4.31296 11.1181 4.24606 11.0603 4.18999C10.9409 4.09121 10.7879 4.04247 10.6333 4.05399H3.49532C3.45318 4.05447 3.4111 4.05748 3.36932 4.06299L3.36832 4.05899ZM3.36932 6.94599C3.24567 6.96435 3.1324 7.02558 3.04932 7.11899C2.95263 7.23717 2.90312 7.38696 2.91032 7.53948C2.91752 7.692 2.98093 7.83645 3.08832 7.94499C3.20224 8.04441 3.35032 8.09568 3.50132 8.08799H10.4913C10.6725 8.11176 10.8566 8.0767 11.0163 7.98799C11.0837 7.93595 11.1394 7.87028 11.1797 7.79529C11.22 7.72029 11.244 7.63764 11.2502 7.55273C11.2565 7.46781 11.2447 7.38254 11.2158 7.30247C11.1869 7.22239 11.1414 7.14931 11.0823 7.08799C10.9717 6.98631 10.8255 6.9324 10.6753 6.93799H3.67832C3.57425 6.93418 3.47005 6.93686 3.36632 6.94599H3.36932ZM3.40032 9.81899C3.27052 9.83047 3.14932 9.88876 3.05932 9.98299C2.95618 10.1011 2.90179 10.254 2.90717 10.4107C2.91256 10.5674 2.97731 10.7162 3.08832 10.827C3.20163 10.9245 3.34798 10.975 3.49732 10.968H10.6333C10.7831 10.9776 10.9313 10.9325 11.0503 10.841C11.114 10.784 11.165 10.7141 11.1999 10.6361C11.2348 10.558 11.2528 10.4735 11.2528 10.388C11.2528 10.3025 11.2348 10.218 11.1999 10.1399C11.165 10.0618 11.114 9.99202 11.0503 9.93499C10.9211 9.84064 10.7616 9.79721 10.6023 9.81299C8.20232 9.81299 5.80232 9.80699 3.40232 9.81799L3.40032 9.81899ZM14.1323 10.39C14.1323 12.1533 14.1323 13.917 14.1323 15.681C14.1264 15.9712 14.199 16.2576 14.3423 16.51C14.4571 16.7088 14.614 16.8801 14.8019 17.0119C14.9898 17.1437 15.2043 17.2328 15.4303 17.273C15.6614 17.3143 15.8987 17.3043 16.1254 17.2436C16.3521 17.1829 16.5628 17.0731 16.7423 16.922C16.9162 16.7741 17.0559 16.5902 17.1517 16.383C17.2476 16.1758 17.2972 15.9503 17.2973 15.722C17.2973 13.9453 17.2973 12.169 17.2973 10.393H14.1293L14.1323 10.39ZM3.35932 12.698C3.24434 12.7172 3.13889 12.7738 3.05932 12.859C2.95619 12.9782 2.90274 13.1324 2.91 13.2898C2.91726 13.4472 2.98467 13.5958 3.09832 13.705C3.21016 13.7982 3.35291 13.846 3.49832 13.839H10.6683C10.7456 13.8418 10.8226 13.8289 10.8947 13.8013C10.9669 13.7736 11.0327 13.7317 11.0883 13.678C11.1928 13.5645 11.2508 13.4158 11.2508 13.2615C11.2508 13.1072 11.1928 12.9585 11.0883 12.845C11.0328 12.792 10.9672 12.7508 10.8954 12.7238C10.8235 12.6968 10.747 12.6846 10.6703 12.688H3.71032C3.59323 12.6838 3.47598 12.6871 3.35932 12.698Z" fill="#24D9C1"/>
</svg>
