<svg width="19" height="19" viewBox="0 0 19 19" fill="none" xmlns="http://www.w3.org/2000/svg">
<path d="M2.90072 1.00502C4.24672 0.99702 5.59172 1.00502 6.93672 1.00502C7.45898 1.00155 7.96135 1.20509 8.33392 1.57109C8.70649 1.9371 8.91891 2.43578 8.92472 2.95802C8.92472 3.51402 8.92472 4.07002 8.92472 4.62502C8.91379 4.99705 8.79823 5.35846 8.59129 5.66781C8.38435 5.97716 8.09441 6.22192 7.75472 6.37402C7.48534 6.49185 7.1937 6.55018 6.89972 6.54502C5.59972 6.54502 4.29972 6.54502 2.99972 6.54502C2.47762 6.54797 1.97555 6.34426 1.60309 5.97836C1.23064 5.61247 1.01805 5.1141 1.01172 4.59202C1.01172 4.04736 1.01172 3.50236 1.01172 2.95702C1.01742 2.45198 1.21659 1.96835 1.5682 1.60576C1.91981 1.24317 2.39709 1.02924 2.90172 1.00802L2.90072 1.00502Z" fill="#2D6CE9"/>
<path d="M12.3993 1.004C13.7073 0.995 15.0153 1.004 16.3233 1.004C16.536 0.996719 16.7488 1.01927 16.9553 1.071C17.2094 1.13815 17.4476 1.25546 17.6557 1.41603C17.8639 1.57661 18.0378 1.7772 18.1673 2.006C18.343 2.31897 18.432 2.67314 18.4253 3.032C18.4253 5.39533 18.4253 7.759 18.4253 10.123C18.4226 10.4777 18.3248 10.8251 18.1421 11.1291C17.9593 11.433 17.6983 11.6824 17.3863 11.851C17.0827 12.0125 16.743 12.094 16.3993 12.088H12.7993C12.5255 12.1037 12.2508 12.0812 11.9833 12.021C11.701 11.9458 11.4389 11.8092 11.2155 11.6209C10.9922 11.4327 10.8132 11.1974 10.6913 10.932C10.5659 10.6542 10.5044 10.3517 10.5113 10.047C10.5113 7.69633 10.5113 5.346 10.5113 2.996C10.5074 2.48435 10.7023 1.99118 11.0548 1.62036C11.4074 1.24954 11.8901 1.03001 12.4012 1.008L12.3993 1.004Z" fill="#2D6CE9"/>
<path d="M2.75212 7.35C2.92103 7.33534 3.09064 7.33033 3.26012 7.335H6.70812C6.94668 7.32313 7.18577 7.34298 7.41912 7.39401C7.69465 7.46107 7.95247 7.58682 8.17493 7.76269C8.39739 7.93855 8.57926 8.16039 8.70812 8.413C8.85828 8.71173 8.93279 9.04274 8.92512 9.37699C8.92512 11.727 8.92512 14.077 8.92512 16.427C8.92685 16.6889 8.87652 16.9485 8.77706 17.1908C8.6776 17.4331 8.531 17.6532 8.34576 17.8384C8.16052 18.0235 7.94034 18.17 7.698 18.2693C7.45567 18.3687 7.19601 18.4189 6.93412 18.417C5.79545 18.417 4.65678 18.417 3.51812 18.417C3.14161 18.4449 2.76304 18.4139 2.39612 18.325C2.1003 18.2323 1.83038 18.0714 1.60807 17.8553C1.38576 17.6393 1.21726 17.3741 1.11612 17.081C1.04136 16.8574 1.00518 16.6227 1.00912 16.387C1.00912 14.173 1.00912 11.9593 1.00912 9.746C0.981321 9.38554 1.0172 9.02301 1.11512 8.675C1.2358 8.32257 1.4534 8.01131 1.74295 7.77694C2.03251 7.54257 2.38228 7.3946 2.75212 7.35Z" fill="#2D6CE9"/>
<path d="M12.401 12.88C13.585 12.872 14.769 12.88 15.953 12.88C16.2785 12.8608 16.6052 12.8806 16.926 12.939C17.2039 13.008 17.4634 13.1365 17.6867 13.3157C17.91 13.495 18.0916 13.7206 18.219 13.977C18.3553 14.2546 18.4257 14.5598 18.425 14.869C18.425 15.402 18.425 15.934 18.425 16.469C18.4201 16.9334 18.2517 17.3811 17.9494 17.7335C17.647 18.0859 17.2302 18.3205 16.772 18.396C16.5871 18.4211 16.4004 18.4304 16.214 18.424H12.538C12.2531 18.4289 11.9704 18.3741 11.708 18.263C11.3651 18.1167 11.0705 17.8766 10.8582 17.5701C10.6458 17.2637 10.5245 16.9035 10.508 16.531C10.501 15.978 10.508 15.424 10.508 14.871C10.5049 14.3597 10.7003 13.8672 11.053 13.497C11.4057 13.1268 11.8881 12.9078 12.399 12.886L12.401 12.88Z" fill="#2D6CE9"/>
</svg>
