<svg width="19" height="19" viewBox="0 0 19 19" fill="none" xmlns="http://www.w3.org/2000/svg">
<path d="M4.06285 2.00568C4.84157 1.95962 5.61092 2.19484 6.23075 2.66849C6.85057 3.14214 7.27962 3.8227 7.43972 4.58618C7.59981 5.34966 7.48031 6.14524 7.10298 6.82799C6.72564 7.51074 6.11559 8.03521 5.38397 8.30587C4.65234 8.57652 3.84783 8.57534 3.11701 8.30253C2.38618 8.02973 1.77768 7.50345 1.40236 6.81959C1.02704 6.13573 0.909884 5.3398 1.07223 4.57679C1.23458 3.81379 1.66563 3.1345 2.28685 2.66268C2.80074 2.27267 3.41886 2.04401 4.06285 2.00568ZM4.06285 3.30568C3.61844 3.34854 3.20224 3.54275 2.88392 3.85581C2.5656 4.16887 2.36448 4.58177 2.31422 5.0254C2.26397 5.46903 2.36763 5.91647 2.60785 6.29281C2.84807 6.66914 3.21028 6.95153 3.63383 7.09272C4.05739 7.2339 4.51659 7.22531 4.93457 7.06838C5.35255 6.91144 5.70393 6.61569 5.9299 6.23063C6.15588 5.84557 6.24272 5.39458 6.1759 4.95314C6.10908 4.5117 5.89266 4.10661 5.56285 3.80568C5.36126 3.62391 5.12408 3.48605 4.86637 3.40084C4.60867 3.31562 4.33605 3.28492 4.06585 3.31068L4.06285 3.30568Z" fill="#24D9C1"/>
<path d="M4.06289 4.40667C4.24397 4.36581 4.43338 4.38414 4.60325 4.45898C4.77313 4.53382 4.9145 4.66121 5.00657 4.8224C5.09863 4.98359 5.13654 5.17007 5.1147 5.35441C5.09286 5.53875 5.01243 5.7112 4.88525 5.84641C4.75807 5.98163 4.59085 6.07247 4.40819 6.10554C4.22553 6.13861 4.03708 6.11218 3.87056 6.03015C3.70405 5.94811 3.56825 5.8148 3.48317 5.64982C3.39808 5.48484 3.36819 5.29691 3.39789 5.11367C3.42557 4.94294 3.50368 4.78438 3.62219 4.6584C3.74069 4.53241 3.89417 4.44474 4.06289 4.40667Z" fill="#24D9C1"/>
<path d="M10.2037 4.61168C10.3193 4.5999 10.4356 4.59622 10.5517 4.60068C12.7891 4.60068 15.0261 4.60068 17.2627 4.60068C17.4351 4.60147 17.6001 4.67072 17.7215 4.79318C17.8428 4.91564 17.9105 5.08128 17.9097 5.25368C17.9089 5.42607 17.8397 5.59108 17.7172 5.71242C17.5948 5.83375 17.4291 5.90147 17.2568 5.90068H10.3457C10.1818 5.90669 10.0216 5.85055 9.8972 5.7435C9.77283 5.63645 9.69348 5.48637 9.67503 5.32332C9.65658 5.16026 9.70039 4.99626 9.79768 4.86412C9.89497 4.73198 10.0386 4.64146 10.1997 4.61067L10.2037 4.61168Z" fill="#24D9C1"/>
<path d="M3.74193 10.7127C4.51553 10.5892 5.3077 10.7489 5.97308 11.1623C6.63845 11.5758 7.13238 12.2154 7.36421 12.9637C7.59604 13.712 7.55023 14.5188 7.23517 15.2361C6.92011 15.9533 6.35695 16.5329 5.64904 16.8684C4.94114 17.2039 4.13598 17.2728 3.38134 17.0626C2.6267 16.8523 1.9732 16.3769 1.54079 15.7237C1.10838 15.0704 0.926064 14.2832 1.0273 13.5063C1.12854 12.7295 1.50654 12.0153 2.09193 11.4947C2.5564 11.0824 3.12877 10.8112 3.74193 10.7127ZM3.86393 12.0127C3.42552 12.1021 3.03121 12.3397 2.74715 12.6854C2.4631 13.0311 2.30658 13.464 2.30385 13.9114C2.30112 14.3589 2.45235 14.7936 2.73217 15.1428C3.01199 15.4919 3.40337 15.7342 3.84065 15.829C4.27794 15.9238 4.73453 15.8654 5.13382 15.6634C5.53312 15.4615 5.85081 15.1284 6.03363 14.72C6.21644 14.3116 6.25325 13.8528 6.13786 13.4205C6.02248 12.9881 5.76193 12.6087 5.39993 12.3457C5.18071 12.1873 4.93109 12.0759 4.66675 12.0186C4.40242 11.9613 4.12908 11.9593 3.86393 12.0127Z" fill="#24D9C1"/>
<path d="M10.1213 13.3057C10.1967 13.2825 10.2753 13.2714 10.3543 13.2727H17.2633C17.4163 13.2722 17.5647 13.3257 17.6821 13.4238C17.7996 13.5219 17.8787 13.6583 17.9055 13.809C17.9323 13.9597 17.905 14.115 17.8285 14.2476C17.752 14.3801 17.6311 14.4815 17.4873 14.5337C17.3343 14.5734 17.1757 14.5869 17.0183 14.5737H10.3503C10.1939 14.5791 10.0408 14.528 9.91903 14.4298C9.79724 14.3316 9.71493 14.1927 9.68712 14.0388C9.65931 13.8848 9.6879 13.726 9.76763 13.5914C9.84736 13.4567 9.97288 13.3553 10.1213 13.3057Z" fill="#24D9C1"/>
</svg>
