<svg width="19" height="19" viewBox="0 0 19 19" fill="none" xmlns="http://www.w3.org/2000/svg">
<path d="M2.97965 1.13222C3.08897 1.11671 3.19924 1.10886 3.30965 1.10872H15.6902C15.9799 1.10759 16.2669 1.16386 16.5348 1.27427C16.8027 1.38469 17.046 1.54706 17.2508 1.75202C17.4555 1.95697 17.6177 2.20046 17.7279 2.46842C17.838 2.73638 17.894 3.0235 17.8927 3.31322V15.6912C17.8934 15.9807 17.8368 16.2675 17.7262 16.535C17.6157 16.8026 17.4532 17.0456 17.2483 17.2501C17.0434 17.4546 16.8001 17.6165 16.5323 17.7265C16.2645 17.8366 15.9776 17.8925 15.6882 17.8912H3.31265C2.77731 17.8922 2.25996 17.698 1.85755 17.3449C1.45514 16.9918 1.19528 16.5042 1.12665 15.9732C1.10999 15.8091 1.10415 15.6441 1.10915 15.4792V3.30922C1.10684 2.84488 1.25275 2.39191 1.52566 2.01622C1.69726 1.77939 1.91429 1.57908 2.16409 1.42696C2.4139 1.27485 2.69147 1.17398 2.98065 1.13022L2.97965 1.13222ZM2.52566 2.55922C2.33151 2.76042 2.22382 3.02963 2.22565 3.30922C2.22565 5.55255 2.22565 7.79555 2.22565 10.0382L6.70066 6.53522C6.87866 6.39704 7.0907 6.30954 7.31435 6.28199C7.538 6.25444 7.76494 6.28787 7.97115 6.37872C8.16035 6.46593 8.32761 6.59441 8.46065 6.75472C9.58465 7.95472 10.7088 9.15472 11.8332 10.3547C12.3665 9.78405 12.9013 9.21355 13.4377 8.64322C13.5517 8.52229 13.6888 8.4254 13.8409 8.35826C13.993 8.29111 14.1569 8.25505 14.3232 8.25222C14.4926 8.24763 14.6612 8.27823 14.8183 8.34209C14.9753 8.40594 15.1175 8.50167 15.2357 8.62322C15.7487 9.13889 16.2607 9.65555 16.7717 10.1732C16.7717 7.88522 16.7717 5.59722 16.7717 3.30922C16.7728 3.16681 16.7456 3.0256 16.6917 2.89379C16.6377 2.76198 16.5581 2.64221 16.4575 2.54144C16.3569 2.44067 16.2372 2.3609 16.1055 2.30679C15.9737 2.25267 15.8326 2.22529 15.6902 2.22622H3.31265C3.16566 2.22486 3.01995 2.25371 2.88457 2.31099C2.74919 2.36828 2.62703 2.45277 2.52566 2.55922Z" fill="#2D6CE9"/>
<path d="M11.7868 4.93822C12.0346 4.90777 12.2855 4.96112 12.4995 5.08977C12.7135 5.21842 12.8783 5.41496 12.9676 5.64811C13.057 5.88125 13.0657 6.13759 12.9925 6.3763C12.9193 6.61501 12.7684 6.82236 12.5637 6.96533C12.359 7.10831 12.1123 7.17869 11.863 7.16525C11.6137 7.15182 11.376 7.05535 11.1879 6.89121C10.9997 6.72708 10.8719 6.50471 10.8248 6.25952C10.7777 6.01433 10.8139 5.76041 10.9278 5.53822C11.0113 5.37583 11.1332 5.23629 11.2829 5.13173C11.4326 5.02717 11.6056 4.96074 11.7868 4.93822Z" fill="#2D6CE9"/>
</svg>
