<svg width="19" height="19" viewBox="0 0 19 19" fill="none" xmlns="http://www.w3.org/2000/svg">
<path d="M3.155 2H9.839C10.2382 2.02341 10.6183 2.1785 10.92 2.441C11.1095 2.60544 11.2623 2.80799 11.3682 3.03543C11.4742 3.26288 11.531 3.51011 11.535 3.761C11.535 4.338 11.535 4.914 11.535 5.491C11.5426 5.60253 11.5248 5.71434 11.483 5.818C11.4253 5.93667 11.3301 6.03302 11.2122 6.09213C11.0942 6.15124 10.9601 6.16983 10.8305 6.145C10.7009 6.12018 10.5831 6.05333 10.4953 5.95481C10.4076 5.85629 10.3547 5.73158 10.345 5.6C10.34 4.985 10.345 4.369 10.345 3.754C10.3361 3.60101 10.2689 3.45725 10.1574 3.35219C10.0458 3.24713 9.89825 3.18874 9.745 3.189C8.836 3.189 7.927 3.184 7.017 3.189C7.081 3.219 7.147 3.243 7.217 3.268C7.43701 3.35652 7.62587 3.50825 7.75971 3.70403C7.89355 3.89981 7.96638 4.13086 7.969 4.368C7.969 7.35067 7.969 10.3337 7.969 13.317C8.506 13.317 9.042 13.317 9.579 13.317C9.72123 13.3333 9.8653 13.3165 10 13.268C10.1027 13.2198 10.1896 13.1435 10.2506 13.0479C10.3117 12.9523 10.3444 12.8414 10.345 12.728C10.345 11.992 10.345 11.257 10.345 10.521C10.3335 10.39 10.3467 10.2581 10.384 10.132C10.4364 10.0073 10.5294 9.90389 10.6479 9.83865C10.7664 9.77341 10.9035 9.75013 11.0369 9.77259C11.1703 9.79506 11.2922 9.86195 11.3828 9.96241C11.4734 10.0629 11.5274 10.191 11.536 10.326C11.536 11.126 11.536 11.926 11.536 12.726C11.5341 13.1913 11.3514 13.6376 11.0266 13.9707C10.7017 14.3038 10.2601 14.4975 9.795 14.511C9.183 14.511 8.572 14.511 7.96 14.511C7.99875 14.8737 7.96475 15.2406 7.86 15.59C7.7697 15.7917 7.62546 15.9645 7.44318 16.0894C7.26091 16.2144 7.04768 16.2865 6.827 16.298H6.687C6.4699 16.2646 6.25723 16.2069 6.053 16.126C5.08967 15.804 4.126 15.4823 3.162 15.161C2.93381 15.106 2.71484 15.0181 2.512 14.9C2.36578 14.7968 2.24409 14.6627 2.1556 14.5071C2.06711 14.3516 2.01398 14.1784 2 14L2 3.155C2.01116 2.85223 2.13642 2.56489 2.35066 2.35066C2.56489 2.13642 2.85223 2.01116 3.155 2V2Z" fill="#FF5A5A"/>
<path d="M13.0984 5.02498C13.2089 4.98031 13.3303 4.96957 13.4469 4.99415C13.5636 5.01873 13.6703 5.07751 13.7534 5.16298C14.5414 5.94898 15.3284 6.73598 16.1144 7.52398C16.2196 7.62564 16.2864 7.76063 16.3034 7.90599V8.01799C16.2855 8.15739 16.2222 8.28704 16.1234 8.38698C15.3327 9.17831 14.5414 9.96932 13.7494 10.76C13.6664 10.8418 13.5615 10.8977 13.4473 10.9209C13.3331 10.944 13.2146 10.9334 13.1063 10.8904C12.9981 10.8473 12.9046 10.7737 12.8375 10.6784C12.7704 10.5832 12.7325 10.4704 12.7284 10.354C12.7284 9.75398 12.7284 9.15398 12.7284 8.55398C11.9284 8.55398 11.1284 8.55398 10.3284 8.55398C10.1949 8.54437 10.0684 8.49039 9.96912 8.40062C9.86983 8.31086 9.8034 8.19046 9.7804 8.0586C9.75741 7.92673 9.77918 7.79096 9.84223 7.67289C9.90529 7.55481 10.006 7.46122 10.1284 7.40699C10.2575 7.3658 10.3935 7.35084 10.5284 7.36299H12.7354C12.7354 6.76299 12.7354 6.17098 12.7354 5.57498C12.7356 5.45789 12.7701 5.34342 12.8346 5.24568C12.8991 5.14795 12.9908 5.07123 13.0984 5.02498Z" fill="#FF5A5A"/>
</svg>
