<svg width="19" height="19" viewBox="0 0 19 19" fill="none" xmlns="http://www.w3.org/2000/svg">
<path d="M11.4158 1H11.4919C11.6495 1.02594 11.792 1.10929 11.8918 1.234C13.9778 3.32133 16.0645 5.408 18.1518 7.494C18.3046 7.60892 18.4164 7.76981 18.4708 7.953V8.092C18.4472 8.21101 18.3887 8.3203 18.3028 8.406C17.4635 9.24333 16.6252 10.0813 15.7878 10.92L8.54785 3.684L11.0798 1.151C11.1706 1.0627 11.2896 1.00923 11.4158 1V1Z" fill="#24D9C1"/>
<path d="M6.321 5.91003C6.823 5.41003 7.323 4.91003 7.821 4.41003C10.2337 6.82137 12.6457 9.23336 15.057 11.646C14.5623 12.1427 14.067 12.6384 13.571 13.133C13.3619 13.3699 13.1221 13.5777 12.858 13.751C12.5338 13.9397 12.1643 14.0363 11.7893 14.0303C11.4142 14.0243 11.048 13.916 10.73 13.717C10.486 13.5425 10.2605 13.3435 10.057 13.123C9.94667 13.0538 9.82097 13.0128 9.69101 13.0037C9.56106 12.9946 9.43088 13.0178 9.312 13.071C8.80741 13.2616 8.35265 13.5642 7.982 13.956C7.67588 14.2545 7.42471 14.6045 7.24 14.99C7.16673 15.1506 7.1305 15.3256 7.134 15.502C7.11876 15.965 6.99882 16.4185 6.78319 16.8284C6.56756 17.2384 6.26184 17.5942 5.889 17.869C5.40986 18.2204 4.84078 18.4285 4.248 18.469H3.919C3.1584 18.4278 2.43982 18.1071 1.90111 17.5686C1.36241 17.0301 1.04151 16.3116 1 15.551L1 15.245C1.04564 14.4258 1.41424 13.658 2.025 13.11C2.56874 12.6217 3.26937 12.3443 4 12.328C4.18209 12.3286 4.36183 12.2869 4.525 12.206C4.89762 12.0166 5.23567 11.7657 5.525 11.464C5.82061 11.1722 6.07043 10.8375 6.266 10.471C6.39731 10.2356 6.4639 9.96956 6.459 9.70003C6.45251 9.57394 6.39857 9.45498 6.308 9.36703C6.09096 9.17264 5.89822 8.95271 5.734 8.71203C5.53723 8.38793 5.43368 8.01584 5.43474 7.63669C5.4358 7.25754 5.54143 6.88603 5.74 6.56303C5.90571 6.32321 6.09903 6.1037 6.316 5.90903L6.321 5.91003ZM3.97 14.895C3.87076 14.9147 3.77958 14.9633 3.70801 15.0348C3.63644 15.1063 3.5877 15.1974 3.56796 15.2966C3.54822 15.3958 3.55838 15.4987 3.59714 15.5921C3.6359 15.6855 3.70152 15.7654 3.78569 15.8215C3.86986 15.8776 3.96879 15.9075 4.06995 15.9073C4.17111 15.9072 4.26994 15.877 4.35394 15.8206C4.43793 15.7642 4.5033 15.6842 4.54176 15.5906C4.58022 15.4971 4.59005 15.3942 4.57 15.295C4.54201 15.1643 4.46428 15.0496 4.35324 14.9751C4.24221 14.9007 4.10657 14.8723 3.975 14.896L3.97 14.895Z" fill="#24D9C1"/>
</svg>
