<svg width="124" height="48" viewBox="0 0 124 48" fill="none" xmlns="http://www.w3.org/2000/svg">
<g clip-path="url(#clip0_172_660)">
<path d="M32.4695 43.5308L31.4336 42.4927L26.9732 46.9623L28.0091 48.0003L32.4695 43.5308Z" fill="#2D6CE9"/>
<path d="M38.6081 46.8406H37.2461L36.9631 47.6613H36.3301L37.6591 44.1331H38.2011L39.5331 47.6613H38.9001L38.6081 46.8406ZM37.4141 46.3466H38.4361L37.9241 44.8696L37.4141 46.3466Z" fill="#2D6CE9"/>
<path d="M50.5501 46.7524C50.5543 46.684 50.5415 46.6157 50.5129 46.5534C50.4842 46.4911 50.4407 46.437 50.3861 46.3957C50.2061 46.2777 50.0072 46.1916 49.7981 46.1412C49.5613 46.076 49.3337 45.9807 49.1211 45.8576C48.9775 45.7813 48.857 45.6678 48.7722 45.5289C48.6874 45.39 48.6415 45.2308 48.6391 45.068C48.6372 44.9318 48.6677 44.797 48.7283 44.675C48.7888 44.553 48.8775 44.4473 48.9871 44.3666C49.2459 44.1724 49.5641 44.0747 49.8871 44.09C50.1127 44.086 50.3363 44.1333 50.5411 44.2283C50.7246 44.3099 50.8813 44.4419 50.9931 44.6091C51.1036 44.7731 51.1612 44.9673 51.1581 45.1652H50.5491C50.5535 45.0847 50.5404 45.0042 50.5107 44.9293C50.481 44.8544 50.4354 44.7868 50.3771 44.7313C50.238 44.6191 50.0622 44.563 49.8841 44.574C49.7185 44.562 49.5538 44.6069 49.4171 44.7013C49.3629 44.7429 49.3197 44.7972 49.2911 44.8593C49.2625 44.9215 49.2495 44.9896 49.2531 45.058C49.2523 45.1228 49.2681 45.1867 49.2989 45.2437C49.3297 45.3007 49.3745 45.3489 49.4291 45.3837C49.6129 45.4975 49.8128 45.583 50.0221 45.6372C50.2529 45.7008 50.4742 45.7952 50.6801 45.9177C50.8334 46.0045 50.9637 46.1268 51.0601 46.2745C51.1392 46.42 51.1789 46.5838 51.1751 46.7494C51.1803 46.885 51.1523 47.0198 51.0935 47.1421C51.0348 47.2644 50.9471 47.3704 50.8381 47.4509C50.5711 47.6387 50.2487 47.7308 49.9231 47.7124C49.6823 47.7152 49.4437 47.6667 49.2231 47.5701C49.0252 47.4906 48.8525 47.3591 48.7231 47.1893C48.6046 47.0183 48.543 46.8143 48.5471 46.6061H49.1591C49.1541 46.6933 49.1691 46.7804 49.2029 46.8608C49.2367 46.9412 49.2884 47.0128 49.3541 47.0701C49.5191 47.1907 49.7213 47.2489 49.9251 47.2344C50.0942 47.248 50.2629 47.203 50.4031 47.1072C50.4543 47.0643 50.4944 47.0096 50.52 46.9479C50.5456 46.8861 50.5559 46.8191 50.5501 46.7524Z" fill="#2D6CE9"/>
<path d="M62.5278 46.0861H61.0818V47.1713H62.7687V47.6623H60.4688V44.1331H62.7687V44.6271H61.0847V45.6011H62.5307L62.5278 46.0861Z" fill="#2D6CE9"/>
<path d="M74.8374 47.6603H74.2474L72.6784 45.1552V47.6603H72.0664V44.1331H72.6784L74.2514 46.6452V44.1331H74.8514L74.8374 47.6603Z" fill="#2D6CE9"/>
<path d="M86.307 46.8406H84.963L84.676 47.6613H84.043L85.372 44.1331H85.92L87.251 47.6603H86.618L86.307 46.8406ZM85.113 46.3466H86.135L85.623 44.8696L85.113 46.3466Z" fill="#2D6CE9"/>
<path d="M96.4062 47.6613V44.1341H97.4443C97.7333 44.1303 98.0182 44.2029 98.2703 44.3445C98.5117 44.482 98.7075 44.6876 98.8333 44.9357C98.9693 45.2069 99.0379 45.507 99.0333 45.8105V45.9909C99.0372 46.2956 98.9687 46.5969 98.8333 46.8697C98.7044 47.1172 98.5059 47.3214 98.2623 47.4569C98.0032 47.598 97.712 47.6691 97.4173 47.6633L96.4062 47.6613ZM97.0153 44.6271V47.1693H97.3953C97.533 47.1775 97.6709 47.1548 97.7987 47.1028C97.9266 47.0508 98.0412 46.9708 98.1343 46.8687C98.3188 46.6188 98.411 46.3124 98.3953 46.0019V45.8065C98.4146 45.4931 98.3252 45.1827 98.1423 44.9277C98.0531 44.8248 97.9413 44.7441 97.8156 44.6919C97.69 44.6397 97.5539 44.6175 97.4183 44.6271H97.0153Z" fill="#2D6CE9"/>
<path d="M110.47 46.0861H109.024V47.1713H110.709V47.6623H108.419V44.1331H110.709V44.6271H109.036V45.6011H110.482L110.47 46.0861Z" fill="#2D6CE9"/>
<path d="M121.229 46.8907L122.129 44.1331H122.798L121.533 47.6613H120.945L119.675 44.1331H120.344L121.229 46.8907Z" fill="#2D6CE9"/>
<path d="M124 8.33494e-06V5.36797H122.673C121.044 5.36335 119.48 6.00414 118.321 7.15061L112.79 12.6027C112.376 13.0126 111.931 13.3895 111.458 13.73V6.38504L114.566 3.31678C116.728 1.1782 119.648 -0.0144763 122.686 8.33494e-06H124Z" fill="#2D6CE9"/>
<path d="M59.9902 18.2763C62.4987 18.2763 64.5322 16.2386 64.5322 13.725C64.5322 11.2114 62.4987 9.17371 59.9902 9.17371C57.4818 9.17371 55.4482 11.2114 55.4482 13.725C55.4482 16.2386 57.4818 18.2763 59.9902 18.2763Z" fill="#2D6CE9"/>
<path d="M20.9843 19.5729V28.0683C20.9847 29.4495 20.7135 30.8173 20.1863 32.0935C19.659 33.3697 18.886 34.5294 17.9114 35.5061C16.9368 36.4829 15.7797 37.2577 14.5062 37.7863C13.2327 38.3149 11.8677 38.5869 10.4893 38.5868H0.000304286V33.2148H10.4913C11.8529 33.2148 13.1588 32.673 14.1219 31.7085C15.085 30.744 15.6265 29.4357 15.6273 28.0713V19.7283C15.6416 18.39 15.1453 17.0968 14.24 16.1129C13.3347 15.129 12.0886 14.5286 10.7563 14.4345C10.0606 14.3996 9.36511 14.5067 8.71196 14.7492C8.05882 14.9918 7.46166 15.3648 6.9567 15.8456C6.45174 16.3264 6.04951 16.9049 5.77441 17.5462C5.4993 18.1874 5.35706 18.878 5.3563 19.576V22.8587H10.2653V28.2286H0.000304286V19.7924C-0.020521 17.0303 1.02833 14.3677 2.92631 12.3646C4.82428 10.3614 7.42347 9.17381 10.1773 9.05146C11.5819 9.01016 12.9804 9.25178 14.2901 9.76201C15.5998 10.2722 16.794 11.0407 17.8018 12.0219C18.8097 13.003 19.6108 14.1769 20.1576 15.474C20.7045 16.771 20.9859 18.1649 20.9853 19.5729H20.9843Z" fill="#2D6CE9"/>
<path d="M36.2938 19.577V28.0703C36.2946 29.4518 36.0237 30.82 35.4966 32.0965C34.9695 33.3731 34.1966 34.533 33.2219 35.5101C32.2473 36.4872 31.0901 37.2623 29.8164 37.7911C28.5427 38.3199 27.1775 38.5919 25.7988 38.5918H21.1758V33.2148H25.7988C27.1606 33.2148 28.4666 32.6729 29.4298 31.7082C30.3929 30.7434 30.9342 29.4349 30.9348 28.0703V19.574C30.9337 18.2108 30.3934 16.9036 29.4321 15.9389C28.4709 14.9742 27.1672 14.4307 25.8068 14.4275V9.06152C28.5883 9.06497 31.2547 10.1742 33.2209 12.1457C35.187 14.1172 36.2922 16.7898 36.2938 19.577Z" fill="#2D6CE9"/>
<path d="M122.845 9.10059H117.486V38.5838H122.845V9.10059Z" fill="#2D6CE9"/>
<path d="M50.4303 38.5838C47.6398 38.5808 44.9644 37.4688 42.9912 35.4915C41.018 33.5143 39.9082 30.8334 39.9053 28.0372V5.49921H45.2573V28.0372C45.2578 29.4102 45.8022 30.7267 46.7708 31.6977C47.7395 32.6687 49.0531 33.2147 50.4233 33.2158C52.0485 33.2242 53.6113 32.5889 54.7713 31.4482L60.3023 25.9961C62.4631 23.8618 65.3772 22.6684 68.4113 22.6753V28.0452C66.783 28.0409 65.2191 28.6817 64.0603 29.8279L58.5483 35.258C56.3851 37.3989 53.4637 38.5943 50.4233 38.5828L50.4303 38.5838Z" fill="#2D6CE9"/>
<path d="M113.857 27.0062V28.4892H113.83C113.827 31.1664 112.765 33.733 110.875 35.6261C108.986 37.5191 106.425 38.5839 103.753 38.5868H62.0381V33.2148H103.754C105.005 33.2138 106.204 32.7154 107.089 31.829C107.974 30.9426 108.471 29.7407 108.472 28.4872V27.0062H113.857Z" fill="#2D6CE9"/>
</g>
<defs>
<clipPath id="clip0_172_660">
<rect width="124" height="48" fill="white"/>
</clipPath>
</defs>
</svg>
